<svg width="55" height="40" viewBox="0 0 55 40" fill="none" xmlns="http://www.w3.org/2000/svg">
<path d="M27.7293 9.49561H27.271C26.7184 9.49561 26.1885 9.7151 25.7978 10.1058C25.4071 10.4965 25.1876 11.0264 25.1876 11.5789V11.7664C25.1872 12.1318 25.0908 12.4906 24.908 12.8069C24.7251 13.1232 24.4624 13.3859 24.146 13.5685L23.698 13.8289C23.3813 14.0118 23.0221 14.1081 22.6564 14.1081C22.2907 14.1081 21.9314 14.0118 21.6147 13.8289L21.4585 13.7456C20.9804 13.4698 20.4125 13.395 19.8793 13.5376C19.3461 13.6802 18.8913 14.0285 18.6147 14.506L18.3855 14.9019C18.1098 15.3799 18.035 15.9479 18.1775 16.481C18.3201 17.0142 18.6684 17.469 19.146 17.7456L19.3022 17.8498C19.6171 18.0316 19.8789 18.2926 20.0616 18.6069C20.2444 18.9212 20.3417 19.2779 20.3439 19.6414V20.1727C20.3453 20.5398 20.2498 20.9008 20.0668 21.2191C19.8839 21.5373 19.6201 21.8016 19.3022 21.9852L19.146 22.0789C18.6684 22.3556 18.3201 22.8104 18.1775 23.3435C18.035 23.8767 18.1098 24.4446 18.3855 24.9227L18.6147 25.3185C18.8913 25.7961 19.3461 26.1444 19.8793 26.287C20.4125 26.4295 20.9804 26.3547 21.4585 26.0789L21.6147 25.9956C21.9314 25.8128 22.2907 25.7165 22.6564 25.7165C23.0221 25.7165 23.3813 25.8128 23.698 25.9956L24.146 26.256C24.4624 26.4387 24.7251 26.7014 24.908 27.0176C25.0908 27.3339 25.1872 27.6928 25.1876 28.0581V28.2456C25.1876 28.7981 25.4071 29.328 25.7978 29.7187C26.1885 30.1094 26.7184 30.3289 27.271 30.3289H27.7293C28.2818 30.3289 28.8117 30.1094 29.2024 29.7187C29.5931 29.328 29.8126 28.7981 29.8126 28.2456V28.0581C29.813 27.6928 29.9094 27.3339 30.0923 27.0176C30.2751 26.7014 30.5379 26.4387 30.8543 26.256L31.3022 25.9956C31.6189 25.8128 31.9782 25.7165 32.3439 25.7165C32.7096 25.7165 33.0688 25.8128 33.3855 25.9956L33.5418 26.0789C34.0198 26.3547 34.5878 26.4295 35.121 26.287C35.6541 26.1444 36.1089 25.7961 36.3855 25.3185L36.6147 24.9123C36.8905 24.4342 36.9653 23.8663 36.8227 23.3331C36.6802 22.7999 36.3319 22.3451 35.8543 22.0685L35.698 21.9852C35.3801 21.8016 35.1163 21.5373 34.9334 21.2191C34.7505 20.9008 34.6549 20.5398 34.6564 20.1727V19.6519C34.6549 19.2848 34.7505 18.9238 34.9334 18.6055C35.1163 18.2872 35.3801 18.0229 35.698 17.8394L35.8543 17.7456C36.3319 17.469 36.6802 17.0142 36.8227 16.481C36.9653 15.9479 36.8905 15.3799 36.6147 14.9019L36.3855 14.506C36.1089 14.0285 35.6541 13.6802 35.121 13.5376C34.5878 13.395 34.0198 13.4698 33.5418 13.7456L33.3855 13.8289C33.0688 14.0118 32.7096 14.1081 32.3439 14.1081C31.9782 14.1081 31.6189 14.0118 31.3022 13.8289L30.8543 13.5685C30.5379 13.3859 30.2751 13.1232 30.0923 12.8069C29.9094 12.4906 29.813 12.1318 29.8126 11.7664V11.5789C29.8126 11.0264 29.5931 10.4965 29.2024 10.1058C28.8117 9.7151 28.2818 9.49561 27.7293 9.49561Z" stroke="white" stroke-width="2.08333" stroke-linecap="round" stroke-linejoin="round"/>
<path d="M27.5 23.0371C29.2259 23.0371 30.625 21.638 30.625 19.9121C30.625 18.1862 29.2259 16.7871 27.5 16.7871C25.7741 16.7871 24.375 18.1862 24.375 19.9121C24.375 21.638 25.7741 23.0371 27.5 23.0371Z" stroke="white" stroke-width="2.08333" stroke-linecap="round" stroke-linejoin="round"/>
</svg>
