<svg width="55" height="40" viewBox="0 0 55 40" fill="none" xmlns="http://www.w3.org/2000/svg">
<path d="M27.5 18.0254V21.9952" stroke="white" stroke-width="2.08333" stroke-linecap="round" stroke-linejoin="round"/>
<path d="M27.5 9.49561V12.6206" stroke="white" stroke-width="2.08333" stroke-linecap="round" stroke-linejoin="round"/>
<path d="M34.7917 20.9539V14.7039C34.7917 14.1514 34.5722 13.6215 34.1815 13.2308C33.7908 12.8401 33.2609 12.6206 32.7084 12.6206H22.2917C21.7392 12.6206 21.2093 12.8401 20.8186 13.2308C20.4279 13.6215 20.2084 14.1514 20.2084 14.7039V20.9539" stroke="white" stroke-width="2.08333" stroke-linecap="round" stroke-linejoin="round"/>
<path d="M35.1875 28.2454C36.308 26.3544 36.8915 24.1935 36.875 21.9954L28.3459 18.2048C28.0796 18.0865 27.7914 18.0254 27.5 18.0254C27.2087 18.0254 26.9205 18.0865 26.6542 18.2048L18.125 21.9954C18.0768 24.9576 19.1185 27.8343 21.0521 30.0788" stroke="white" stroke-width="2.08333" stroke-linecap="round" stroke-linejoin="round"/>
<path d="M17.0834 29.2873C17.7084 29.8081 18.3334 30.3289 19.6876 30.3289C22.2917 30.3289 22.2917 28.2456 24.8959 28.2456C26.2501 28.2456 26.8751 28.7664 27.5001 29.2873C28.1251 29.8081 28.7501 30.3289 30.1042 30.3289C32.7084 30.3289 32.7084 28.2456 35.3126 28.2456C36.6667 28.2456 37.2917 28.7664 37.9167 29.2873" stroke="white" stroke-width="2.08333" stroke-linecap="round" stroke-linejoin="round"/>
</svg>
