<svg width="55" height="40" viewBox="0 0 55 40" fill="none" xmlns="http://www.w3.org/2000/svg">
<path d="M23.3333 30.3289C23.9086 30.3289 24.3749 29.8626 24.3749 29.2873C24.3749 28.712 23.9086 28.2456 23.3333 28.2456C22.758 28.2456 22.2916 28.712 22.2916 29.2873C22.2916 29.8626 22.758 30.3289 23.3333 30.3289Z" stroke="white" stroke-width="2.08333" stroke-linecap="round" stroke-linejoin="round"/>
<path d="M34.7917 30.3289C35.367 30.3289 35.8333 29.8626 35.8333 29.2873C35.8333 28.712 35.367 28.2456 34.7917 28.2456C34.2164 28.2456 33.75 28.712 33.75 29.2873C33.75 29.8626 34.2164 30.3289 34.7917 30.3289Z" stroke="white" stroke-width="2.08333" stroke-linecap="round" stroke-linejoin="round"/>
<path d="M17.1353 9.54736H19.2187L21.9895 22.4849C22.0912 22.9587 22.3548 23.3822 22.735 23.6826C23.1153 23.983 23.5884 24.1415 24.0728 24.1307H34.2603C34.7345 24.1299 35.1942 23.9675 35.5635 23.6701C35.9328 23.3728 36.1897 22.9583 36.2916 22.4953L38.0103 14.7557H20.3333" stroke="white" stroke-width="2.08333" stroke-linecap="round" stroke-linejoin="round"/>
</svg>
