<svg width="55" height="40" viewBox="0 0 55 40" fill="none" xmlns="http://www.w3.org/2000/svg">
<path d="M35.8333 20.9539C35.8333 26.1623 32.1874 28.7664 27.8541 30.2768C27.6272 30.3537 27.3807 30.3501 27.1562 30.2664C22.8124 28.7664 19.1666 26.1623 19.1666 20.9539V13.6623C19.1666 13.386 19.2763 13.121 19.4717 12.9257C19.667 12.7303 19.932 12.6206 20.2083 12.6206C22.2916 12.6206 24.8958 11.3706 26.7083 9.78725C26.9289 9.59871 27.2097 9.49512 27.4999 9.49512C27.7902 9.49512 28.0709 9.59871 28.2916 9.78725C30.1145 11.381 32.7083 12.6206 34.7916 12.6206C35.0679 12.6206 35.3328 12.7303 35.5282 12.9257C35.7235 13.121 35.8333 13.386 35.8333 13.6623V20.9539Z" stroke="white" stroke-width="2.08333" stroke-linecap="round" stroke-linejoin="round"/>
<path d="M24.375 19.9119L26.4583 21.9953L30.625 17.8286" stroke="white" stroke-width="2.08333" stroke-linecap="round" stroke-linejoin="round"/>
</svg>
