<svg width="55" height="40" viewBox="0 0 55 40" fill="none" xmlns="http://www.w3.org/2000/svg">
<path d="M31.6667 29.2871V27.2038C31.6667 26.0987 31.2278 25.0389 30.4464 24.2575C29.6649 23.4761 28.6051 23.0371 27.5001 23.0371H21.2501C20.145 23.0371 19.0852 23.4761 18.3038 24.2575C17.5224 25.0389 17.0834 26.0987 17.0834 27.2038V29.2871" stroke="white" stroke-width="2.08333" stroke-linecap="round" stroke-linejoin="round"/>
<path d="M24.3751 18.8704C26.6763 18.8704 28.5417 17.005 28.5417 14.7038C28.5417 12.4026 26.6763 10.5371 24.3751 10.5371C22.0739 10.5371 20.2084 12.4026 20.2084 14.7038C20.2084 17.005 22.0739 18.8704 24.3751 18.8704Z" stroke="white" stroke-width="2.08333" stroke-linecap="round" stroke-linejoin="round"/>
<path d="M31.6666 18.8704L33.7499 20.9538L37.9166 16.7871" stroke="white" stroke-width="2.08333" stroke-linecap="round" stroke-linejoin="round"/>
</svg>
