<svg width="55" height="40" viewBox="0 0 55 40" fill="none" xmlns="http://www.w3.org/2000/svg">
<path d="M26.4583 30.0475C26.775 30.2304 27.1343 30.3266 27.5 30.3266C27.8657 30.3266 28.225 30.2304 28.5417 30.0475L35.8333 25.8808C36.1497 25.6982 36.4125 25.4355 36.5954 25.1192C36.7782 24.8029 36.8746 24.4441 36.875 24.0788V15.7454C36.8746 15.3801 36.7782 15.0213 36.5954 14.705C36.4125 14.3887 36.1497 14.126 35.8333 13.9433L28.5417 9.77667C28.225 9.59382 27.8657 9.49756 27.5 9.49756C27.1343 9.49756 26.775 9.59382 26.4583 9.77667L19.1667 13.9433C18.8503 14.126 18.5875 14.3887 18.4046 14.705C18.2218 15.0213 18.1254 15.3801 18.125 15.7454V24.0788C18.1254 24.4441 18.2218 24.8029 18.4046 25.1192C18.5875 25.4355 18.8503 25.6982 19.1667 25.8808L26.4583 30.0475Z" stroke="white" stroke-width="2.08333" stroke-linecap="round" stroke-linejoin="round"/>
<path d="M27.5 30.3288V19.9121" stroke="white" stroke-width="2.08333" stroke-linecap="round" stroke-linejoin="round"/>
<path d="M18.4271 14.7036L27.5 19.9119L36.5729 14.7036" stroke="white" stroke-width="2.08333" stroke-linecap="round" stroke-linejoin="round"/>
<path d="M22.8125 11.8599L32.1875 17.2244" stroke="white" stroke-width="2.08333" stroke-linecap="round" stroke-linejoin="round"/>
</svg>
