<svg width="55" height="40" viewBox="0 0 55 40" fill="none" xmlns="http://www.w3.org/2000/svg">
<path d="M33.7499 9.49561H21.2499C20.0993 9.49561 19.1666 10.4283 19.1666 11.5789V28.2456C19.1666 29.3962 20.0993 30.3289 21.2499 30.3289H33.7499C34.9005 30.3289 35.8333 29.3962 35.8333 28.2456V11.5789C35.8333 10.4283 34.9005 9.49561 33.7499 9.49561Z" stroke="white" stroke-width="2.08333" stroke-linecap="round" stroke-linejoin="round"/>
<path d="M24.375 30.3288V26.1621H30.625V30.3288" stroke="white" stroke-width="2.08333" stroke-linecap="round" stroke-linejoin="round"/>
<path d="M23.3334 13.6621H23.3438" stroke="white" stroke-width="2.08333" stroke-linecap="round" stroke-linejoin="round"/>
<path d="M31.6666 13.6621H31.677" stroke="white" stroke-width="2.08333" stroke-linecap="round" stroke-linejoin="round"/>
<path d="M27.5 13.6621H27.5104" stroke="white" stroke-width="2.08333" stroke-linecap="round" stroke-linejoin="round"/>
<path d="M27.5 17.8286H27.5104" stroke="white" stroke-width="2.08333" stroke-linecap="round" stroke-linejoin="round"/>
<path d="M27.5 21.9956H27.5104" stroke="white" stroke-width="2.08333" stroke-linecap="round" stroke-linejoin="round"/>
<path d="M31.6666 17.8286H31.677" stroke="white" stroke-width="2.08333" stroke-linecap="round" stroke-linejoin="round"/>
<path d="M31.6666 21.9956H31.677" stroke="white" stroke-width="2.08333" stroke-linecap="round" stroke-linejoin="round"/>
<path d="M23.3334 17.8286H23.3438" stroke="white" stroke-width="2.08333" stroke-linecap="round" stroke-linejoin="round"/>
<path d="M23.3334 21.9956H23.3438" stroke="white" stroke-width="2.08333" stroke-linecap="round" stroke-linejoin="round"/>
</svg>
