<svg width="55" height="40" viewBox="0 0 55 40" fill="none" xmlns="http://www.w3.org/2000/svg">
<g transform="translate(15, 7.5)">
<path d="M9.37494 3.125H4.16661C3.59131 3.125 3.12494 3.59137 3.12494 4.16667V11.4583C3.12494 12.0336 3.59131 12.5 4.16661 12.5H9.37494C9.95024 12.5 10.4166 12.0336 10.4166 11.4583V4.16667C10.4166 3.59137 9.95024 3.125 9.37494 3.125Z" stroke="white" stroke-width="2.08333" stroke-linecap="round" stroke-linejoin="round"/>
<path d="M20.8333 3.125H15.625C15.0497 3.125 14.5833 3.59137 14.5833 4.16667V7.29167C14.5833 7.86696 15.0497 8.33333 15.625 8.33333H20.8333C21.4086 8.33333 21.875 7.86696 21.875 7.29167V4.16667C21.875 3.59137 21.4086 3.125 20.8333 3.125Z" stroke="white" stroke-width="2.08333" stroke-linecap="round" stroke-linejoin="round"/>
<path d="M20.8333 12.5H15.625C15.0497 12.5 14.5833 12.9664 14.5833 13.5417V20.8333C14.5833 21.4086 15.0497 21.875 15.625 21.875H20.8333C21.4086 21.875 21.875 21.4086 21.875 20.8333V13.5417C21.875 12.9664 21.4086 12.5 20.8333 12.5Z" stroke="white" stroke-width="2.08333" stroke-linecap="round" stroke-linejoin="round"/>
<path d="M9.37494 16.6665H4.16661C3.59131 16.6665 3.12494 17.1329 3.12494 17.7082V20.8332C3.12494 21.4085 3.59131 21.8748 4.16661 21.8748H9.37494C9.95024 21.8748 10.4166 21.4085 10.4166 20.8332V17.7082C10.4166 17.1329 9.95024 16.6665 9.37494 16.6665Z" stroke="white" stroke-width="2.08333" stroke-linecap="round" stroke-linejoin="round"/>
</g>
</svg>
